#!OML:ASF H:\LiuWeirdWalks\Patient Classification 1\Patient 1\Session 1\male.ASF
:FULLY-SPECIFIED
:DEGREES
679
root 0.73954 18.0784 38.5209 3.59122 1.84481 0.930316
lowerback 2.33897 -6.30874 -0.0393457
upperback -1.47172 -8.31314 5.1207
thorax -2.05178 -4.12835 5.60756
lowerneck -12.0011 -4.48225 -4.50674
upperneck 16.8079 -4.99213 -1.60512
head 7.2131 -2.83336 -0.27063
rclavicle 1.09332e-014 -7.4743e-014
rhumerus -65.8327 -23.9474 -29.7303
rradius 21.8261
rwrist -1.23283
rhand -14.6736 -5.70168
rfingers 7.12502
rthumb 11.4796 -35.3674
lclavicle 1.09332e-014 -7.4743e-014
lhumerus 7.88819 -30.2811 93.6619
lradius 44.9342
lwrist 17.0311
lhand -13.2557 -7.95845
lfingers 7.12502
lthumb 12.8467 21.6262
rfemur -20.3315 -1.21553 19.4971
rtibia 32.8754
rfoot -3.40816 -11.6867
rtoes -1.75745
lfemur 3.69932 -1.03069 -18.0071
ltibia 30.0356
lfoot -3.30941 11.691
ltoes -17.998
680
root 0.722111 18.0901 38.5875 3.71465 1.85848 0.902253
lowerback 2.29138 -6.38433 -0.225445
upperback -1.58709 -8.41713 5.25932
thorax -2.08738 -4.17644 5.85727
lowerneck -11.8525 -4.36751 -4.39934
upperneck 16.767 -4.83066 -1.79751
head 7.16373 -2.76638 -0.329631
rclavicle -1.49387e-013 1.11319e-014
rhumerus -64.9734 -23.7518 -30.82
rradius 21.8658
rwrist -1.4833
rhand -14.8062 -5.63071
rfingers 7.12502
rthumb 11.3517 -35.3035
lclavicle -1.49387e-013 1.11319e-014
lhumerus 7.15753 -30.5115 93.8013
lradius 45.3566
lwrist 16.6609
lhand -13.3342 -8.08043
lfingers 7.12502
lthumb 12.771 21.509
rfemur -20.0983 -1.1996 19.6088
rtibia 32.6362
rfoot -3.45863 -11.7737
rtoes -1.73776
lfemur 3.02146 -0.817443 -17.7263
ltibia 31.2047
lfoot -3.03847 10.846
ltoes -17.8489
681
root 0.705301 18.101 38.6519 3.85883 1.86596 0.865022
lowerback 2.15603 -6.4322 -0.31004
upperback -1.58021 -8.48742 5.34728
thorax -1.97211 -4.21335 5.97674
lowerneck -12.0685 -4.28539 -4.25557
upperneck 16.8008 -4.70575 -1.9466
head 7.2034 -2.71156 -0.394247
rclavicle 1.15295e-014 4.92986e-014
rhumerus -64.0348 -23.853 -31.9547
rradius 21.8907
rwrist -1.65675
rhand -14.9074 -5.52835
rfingers 7.12502
rthumb 11.254 -35.2065
lclavicle 1.15295e-014 4.92986e-014
lhumerus 6.66958 -30.8493 93.7474
lradius 45.7578
lwrist 16.3947
lhand -13.4628 -8.18004
lfingers 7.12502
lthumb 12.647 21.4171
rfemur -19.8987 -1.17323 19.7288
rtibia 32.3997
rfoot -3.50963 -11.8665
rtoes -1.68208
lfemur 2.28322 -0.591338 -17.4382
ltibia 32.4255
lfoot -2.87032 10.0087
ltoes -17.6813
682
root 0.688934 18.1114 38.7145 4.01688 1.8684 0.821658
lowerback 2.01749 -6.48818 -0.41484
upperback -1.58433 -8.56878 5.45204
thorax -1.85937 -4.25561 6.12497
lowerneck -12.2514 -4.18628 -4.09698
upperneck 16.8142 -4.55769 -2.12554
head 7.22976 -2.64734 -0.467418
rclavicle 4.82053e-014 -5.725e-014
rhumerus -63.0146 -23.934 -33.1182
rradius 21.9166
rwrist -1.75734
rhand -14.9566 -5.38815
rfingers 7.12502
rthumb 11.2066 -35.0688
lclavicle 4.82053e-014 -5.725e-014
lhumerus 6.11801 -31.1077 93.723
lradius 46.1445
lwrist 16.1902
lhand -13.6197 -8.26764
lfingers 7.12502
lthumb 12.4957 21.3388
rfemur -19.7262 -1.13321 19.8531
rtibia 32.1691
rfoot -3.56164 -11.9638
rtoes -1.6179
lfemur 1.49965 -0.357045 -17.1475
ltibia 33.6764
lfoot -2.79997 9.21815
ltoes -17.5399
683
root 0.673174 18.1219 38.7756 4.23438 1.87002 0.737167
lowerback 1.85056 -6.61331 -0.58445
upperback -1.58714 -8.74527 5.62582
thorax -1.69799 -4.34655 6.37633
lowerneck -12.5333 -4.00968 -3.82908
upperneck 16.8499 -4.30203 -2.40353
head 7.27546 -2.53459 -0.582092
rclavicle -7.36497e-014 -1.27222e-014
rhumerus -61.7153 -23.9675 -34.4175
rradius 21.9217
rwrist -1.76296
rhand -14.9291 -5.18376
rfingers 7.12502
rthumb 11.2331 -34.863
lclavicle -7.36497e-014 -1.27222e-014
lhumerus 5.57177 -31.0842 93.6417
lradius 46.504
lwrist 16.0095
lhand -13.7687 -8.3445
lfingers 7.12502
lthumb 12.3521 21.2706
rfemur -19.6306 -1.07733 20.021
rtibia 31.9436
rfoot -3.60308 -12.0644
rtoes -1.56232
lfemur 0.624507 -0.10432 -16.8132
ltibia 34.9383
lfoot -2.82369 8.49483
ltoes -17.4933
684
root 0.657528 18.1309 38.8355 4.41562 1.87509 0.66549
lowerback 1.65072 -6.5946 -0.520011
upperback -1.60847 -8.72179 5.66837
thorax -1.61409 -4.33711 6.36004
lowerneck -12.6507 -3.99702 -3.76865
upperneck 16.8859 -4.27654 -2.47526
head 7.30457 -2.52589 -0.615817
rclavicle 2.48481e-014 2.38542e-014
rhumerus -60.8532 -24.134 -35.5008
rradius 21.9912
rwrist -1.84285
rhand -14.9242 -4.92877
rfingers 7.12502
rthumb 11.2378 -34.6078
lclavicle 2.48481e-014 2.38542e-014
lhumerus 4.8919 -31.4935 93.7246
lradius 46.8323
lwrist 15.9395
lhand -13.9279 -8.39998
lfingers 7.12502
lthumb 12.1986 21.2243
rfemur -19.5041 -1.00552 20.1709
rtibia 31.7296
rfoot -3.65032 -12.1765
rtoes -1.51997
lfemur -0.220093 0.154044 -16.4988
ltibia 36.1776
lfoot -2.92795 7.87795
ltoes -17.5278
685
root 0.642279 18.139 38.8946 4.56554 1.87609 0.60338
lowerback 1.48809 -6.56511 -0.452667
upperback -1.64256 -8.68272 5.69451
thorax -1.56885 -4.31874 6.33142
lowerneck -12.7124 -3.99596 -3.72255
upperneck 16.9273 -4.27033 -2.52968
head 7.32654 -2.52575 -0.642388
rclavicle -9.15403e-014 -1.59028e-015
rhumerus -59.9891 -24.2775 -36.5968
rradius 22.0617
rwrist -1.92474
rhand -14.9305 -4.60317
rfingers 7.12502
rthumb 11.2318 -34.2825
lclavicle -9.15403e-014 -1.59028e-015
lhumerus 4.12255 -31.8894 93.861
lradius 47.1142
lwrist 15.9061
lhand -14.138 -8.45562
lfingers 7.12502
lthumb 11.996 21.1806
rfemur -19.3569 -0.920409 20.3057
rtibia 31.5391
rfoot -3.71115 -12.2918
rtoes -1.49142
lfemur -1.03109 0.413239 -16.2043
ltibia 37.3662
lfoot -3.11635 7.39504
ltoes -17.6356
686
root 0.62757 18.1458 38.9531 4.65504 1.86955 0.575314
lowerback 1.37464 -6.51254 -0.396894
upperback -1.68171 -8.61196 5.68944
thorax -1.56283 -4.2833 6.28388
lowerneck -12.6983 -4.01785 -3.69565
upperneck 16.9581 -4.29839 -2.57124
head 7.33267 -2.5417 -0.663241
rclavicle -6.80837e-014 3.97569e-014
rhumerus -59.1448 -24.373 -37.7231
rradius 22.1572
rwrist -2.09306
rhand -14.9679 -4.26083
rfingers 7.12502
rthumb 11.1957 -33.9421
lclavicle -6.80837e-014 3.97569e-014
lhumerus 3.25314 -32.2927 94.0774
lradius 47.346
lwrist 15.8886
lhand -14.3878 -8.51104
lfingers 7.12502
lthumb 11.7551 21.1391
rfemur -19.1562 -0.832435 20.3982
rtibia 31.3751
rfoot -3.7936 -12.3983
rtoes -1.48898
lfemur -1.76455 0.667904 -15.96
ltibia 38.4779
lfoot -3.36641 7.04265
ltoes -17.7426
687
root 0.616002 18.1516 39.0076 4.69177 1.81932 0.669559
lowerback 1.32126 -6.40931 -0.394718
upperback -1.71703 -8.47406 5.61333
thorax -1.59652 -4.21263 6.19945
lowerneck -12.6298 -4.08574 -3.74216
upperneck 16.997 -4.39034 -2.54252
head 7.33567 -2.58633 -0.654795
rclavicle -4.77083e-015 2.8625e-014
rhumerus -58.3632 -24.5159 -38.8154
rradius 22.2916
rwrist -2.29148
rhand -15.0209 -3.91971
rfingers 7.12502
rthumb 11.1446 -33.6038
lclavicle -4.77083e-015 2.8625e-014
lhumerus 2.32965 -32.7673 94.3557
lradius 47.5207
lwrist 15.9011
lhand -14.6561 -8.56415
lfingers 7.12502
lthumb 11.4965 21.1006
rfemur -18.9308 -0.752891 20.3445
rtibia 31.25
rfoot -3.89446 -12.4583
rtoes -1.5016
lfemur -2.42208 0.909666 -15.8836
ltibia 39.4837
lfoot -3.65622 6.84829
ltoes -17.7575
688
root 0.603182 18.1567 39.062 4.68533 1.79387 0.759855
lowerback 1.28553 -6.29654 -0.39249
upperback -1.75635 -8.32289 5.5269
thorax -1.64674 -4.13493 6.10688
lowerneck -12.4906 -4.17314 -3.82207
upperneck 17.04 -4.51092 -2.48883
head 7.32929 -2.64442 -0.634114
rclavicle 7.28546e-014 4.77083e-015
rhumerus -57.59 -24.6107 -39.9436
rradius 22.4748
rwrist -2.56987
rhand -15.091 -3.6064
rfingers 7.12502
rthumb 11.077 -33.2941
lclavicle 7.28546e-014 4.77083e-015
lhumerus 1.31505 -33.2487 94.7071
lradius 47.638
lwrist 15.9333
lhand -14.9238 -8.61422
lfingers 7.12502
lthumb 11.2383 21.0647
rfemur -18.667 -0.685891 20.2967
rtibia 31.1516
rfoot -4.01489 -12.5276
rtoes -1.53685
lfemur -3.0245 1.12033 -15.8019
ltibia 40.3899
lfoot -3.98158 6.72779
ltoes -17.7723
689
root 0.591067 18.1596 39.1169 4.53994 1.75225 0.970329
lowerback 1.32276 -6.1827 -0.558918
upperback -1.70663 -8.17736 5.40699
thorax -1.62595 -4.06085 6.07352
lowerneck -12.4288 -4.26395 -3.9006
upperneck 17.0925 -4.63224 -2.43426
head 7.33983 -2.70296 -0.615444
rclavicle -3.00165e-014 -1.59028e-014
rhumerus -56.6798 -24.7333 -41.1574
rradius 22.6912
rwrist -2.88986
rhand -15.1653 -3.33004
rfingers 7.12502
rthumb 11.0053 -33.0216
lclavicle -3.00165e-014 -1.59028e-014
lhumerus 0.369298 -33.6648 95.0315
lradius 47.6825
lwrist 15.9547
lhand -15.1587 -8.64513
lfingers 7.12502
lthumb 11.0117 21.046
rfemur -18.2518 -0.635898 20.11
rtibia 31.0708
rfoot -4.16117 -12.571
rtoes -1.59646
lfemur -3.44543 1.29975 -15.8668
ltibia 41.1961
lfoot -4.31948 6.69414
ltoes -17.7819
690
root 0.577344 18.1623 39.1712 4.40953 1.75371 1.1247
lowerback 1.33166 -6.08771 -0.708249
upperback -1.66794 -8.05655 5.31744
thorax -1.59628 -3.99952 6.05984
lowerneck -12.3412 -4.34813 -3.96868
upperneck 17.1496 -4.74465 -2.39882
head 7.3467 -2.7584 -0.603201
rclavicle 9.93923e-015 1.59028e-014
rhumerus -55.6977 -24.7766 -42.4434
rradius 22.9551
rwrist -3.25158
rhand -15.2446 -3.12243
rfingers 7.12502
rthumb 10.9288 -32.818
lclavicle 9.93923e-015 1.59028e-014
lhumerus -0.636946 -33.996 95.4026
lradius 47.6563
lwrist 15.9373
lhand -15.3882 -8.66266
lfingers 7.12502
lthumb 10.7903 21.0402
rfemur -17.85 -0.602747 19.9892
rtibia 30.9804
rfoot -4.29253 -12.6275
rtoes -1.67116
lfemur -3.89107 1.4376 -15.8674
ltibia 41.9365
lfoot -4.66511 6.71507
ltoes -17.817
